<?xml version="1.0" encoding="UTF-8" standalone="no"?>
<!DOCTYPE svg PUBLIC "-//W3C//DTD SVG 1.1//EN" "http://www.w3.org/Graphics/SVG/1.1/DTD/svg11.dtd">
<!-- Created with Vectornator (http://vectornator.io/) -->
<svg height="100%" stroke-miterlimit="10" style="fill-rule:nonzero;clip-rule:evenodd;stroke-linecap:round;stroke-linejoin:round;" version="1.1" viewBox="0 0 1024 1024" width="100%" xml:space="preserve" xmlns="http://www.w3.org/2000/svg" xmlns:vectornator="http://vectornator.io" xmlns:xlink="http://www.w3.org/1999/xlink">
<defs/>
<g id="Layer-1" vectornator:layerName="Layer 1">
<path d="M860.681 148.427C767.261 52.6477 643.549 1.03029e-13 512.085 1.03029e-13C511.368 1.03029e-13 510.634 1.03029e-13 509.917 1.03029e-13C377.65 0.582621 253.494 54.3779 160.365 151.499C67.235 248.62 16.2476 377.415 16.8111 514.172C17.3746 650.929 69.4036 779.282 163.319 875.573C256.739 971.352 380.451 1024 511.915 1024C512.632 1024 513.366 1024 514.083 1024C646.35 1023.42 770.506 969.622 863.635 872.501C956.765 775.38 1007.75 646.585 1007.19 509.828C1006.63 373.071 954.596 244.718 860.681 148.427ZM513.947 988.69C491.748 988.76 469.806 987.171 448.189 984.082L448.189 628.983L342.56 628.983L342.56 512.953L448.189 512.953L448.189 435.747C448.189 307.924 508.414 251.816 611.157 251.816C660.369 251.816 686.375 255.594 698.703 257.306L698.703 358.577L628.626 358.577C585.015 358.577 569.783 401.337 569.783 449.536L569.783 512.953L697.61 512.953L680.262 628.983L569.783 628.983L569.783 984.858C551.393 987.224 532.781 988.601 513.947 988.69ZM839.388 847.642C774.211 915.615 692.71 960.777 603.934 979.244L603.934 664.294L680.262 664.294C697.115 664.294 711.442 651.599 714.02 634.386L731.095 520.192C731.574 517.862 731.813 515.443 731.813 512.971C731.813 493.462 716.564 477.661 697.713 477.661L697.628 477.661L603.951 477.661L603.951 449.554C603.951 428.774 607.162 393.905 628.643 393.905L698.72 393.905C717.589 393.905 732.871 378.103 732.871 358.594L732.871 257.324C732.871 239.651 720.235 224.697 703.28 222.332C689.278 220.372 661.701 216.523 611.174 216.523C484.065 216.523 414.055 294.382 414.055 435.765L414.055 477.661L342.577 477.661C323.709 477.661 308.426 493.462 308.426 512.971L308.426 629.001C308.426 648.51 323.709 664.311 342.577 664.311L414.055 664.311L414.055 977.796C328.985 958.835 250.677 915.403 187.395 850.52C99.9175 760.85 51.4744 641.342 50.9621 514.013C50.4498 386.684 97.9026 266.77 184.612 176.358C271.321 85.9454 386.905 35.8577 510.053 35.3103C510.736 35.3103 511.402 35.3103 512.085 35.3103C634.465 35.3103 749.657 84.3388 836.622 173.497C924.083 263.15 972.526 382.658 973.038 509.987C973.55 637.316 926.097 757.23 839.388 847.642ZM867.751 722.344C867.733 722.361 867.716 722.397 867.716 722.397C863.004 730.818 852.622 733.731 844.442 728.894L814.799 711.38C806.62 706.542 803.769 695.755 808.447 687.298C808.464 687.263 808.482 687.245 808.499 687.228C813.211 678.806 823.593 675.893 831.772 680.73L861.416 698.244C869.595 703.1 872.446 713.869 867.751 722.344ZM905.743 626.37C905.351 627.924 904.77 629.372 904.019 630.731C900.262 637.458 892.51 641.042 884.894 638.958L851.87 629.954C842.735 627.482 837.322 617.825 839.713 608.38C842.137 599.022 851.443 593.32 860.579 595.809L893.586 604.796C902.704 607.267 908.134 616.925 905.743 626.37ZM733.879 844.217C737.072 849.867 736.85 856.647 733.896 861.943C732.461 864.521 730.361 866.745 727.715 868.352C719.552 873.242 709.102 870.4 704.355 861.996L687.16 831.488C682.413 823.066 685.162 812.262 693.307 807.353C701.452 802.428 711.92 805.27 716.684 813.727L733.879 844.217ZM918.448 523.511C918.448 526.76 917.628 529.796 916.159 532.409C913.223 537.671 907.741 541.202 901.423 541.237L867.272 541.378C857.847 541.414 850.163 533.557 850.129 523.811C850.077 514.013 857.676 506.121 867.136 506.068L901.304 505.944C910.747 505.909 918.413 513.766 918.448 523.511ZM806.928 779.935C812.563 785.708 813.485 794.536 809.711 801.298C808.977 802.604 808.072 803.805 807.03 804.917C800.388 811.838 789.579 811.891 782.885 805.005L758.638 780.129C751.928 773.244 752.03 761.98 758.553 755.165C765.195 748.244 776.004 748.209 782.698 755.076L806.928 779.935ZM429.355 116.754C430.909 123.463 428.518 130.242 423.72 134.409C421.756 136.121 419.417 137.393 416.753 138.046C404.049 141.206 391.447 145.108 379.255 149.663C370.359 152.964 360.575 148.215 357.399 139.052C354.188 129.871 358.816 119.755 367.661 116.454C381.048 111.475 394.862 107.185 408.745 103.742C417.931 101.447 427.152 107.273 429.355 116.754ZM321.096 157.043C325.98 165.376 323.487 176.093 315.325 181.301C245.452 225.103 191.664 292.705 163.899 371.694C162.841 374.713 161.082 377.238 158.862 379.162C154.337 383.1 147.968 384.512 142.06 382.27C133.181 378.951 128.621 368.817 131.832 359.636C162.226 273.108 221.085 199.044 297.634 151.075C305.711 146.044 316.23 148.71 321.096 157.043Z" fill="#635555" fill-rule="nonzero" opacity="1" stroke="none" vectornator:layerName="path"/>
</g>
</svg>
