<?xml version="1.0" encoding="UTF-8" standalone="no"?>
<!DOCTYPE svg PUBLIC "-//W3C//DTD SVG 1.1//EN" "http://www.w3.org/Graphics/SVG/1.1/DTD/svg11.dtd">
<!-- Created with Vectornator (http://vectornator.io/) -->
<svg height="100%" stroke-miterlimit="10" style="fill-rule:nonzero;clip-rule:evenodd;stroke-linecap:round;stroke-linejoin:round;" version="1.1" viewBox="0 0 1024 1024" width="100%" xml:space="preserve" xmlns="http://www.w3.org/2000/svg" xmlns:vectornator="http://vectornator.io" xmlns:xlink="http://www.w3.org/1999/xlink">
<defs/>
<clipPath id="ArtboardFrame">
<rect height="1024" width="1024" x="0" y="0"/>
</clipPath>
<g clip-path="url(#ArtboardFrame)" id="Layer-1" vectornator:layerName="Layer 1">
<path d="M819.2-4.57098e-14L204.8-4.57098e-14C91.8764-4.57098e-14 2.4869e-14 91.8764 2.4869e-14 204.8L2.4869e-14 819.2C2.4869e-14 932.124 91.8764 1024 204.8 1024L819.2 1024C932.124 1024 1024 932.124 1024 819.2L1024 204.8C1024 91.8607 932.124-4.57098e-14 819.2-4.57098e-14ZM992.492 819.2C992.492 914.747 914.747 992.492 819.2 992.492L204.8 992.492C109.253 992.492 31.5077 914.747 31.5077 819.2L31.5077 204.8C31.5077 109.253 109.253 31.5077 204.8 31.5077L819.2 31.5077C914.747 31.5077 992.492 109.253 992.492 204.8L992.492 819.2Z" fill="#635555" fill-rule="nonzero" opacity="1" stroke="none" vectornator:layerName="path"/>
<path d="M937.354 472.615C933.006 472.615 929.477 476.144 929.477 480.492L929.477 774.506C929.477 859.955 859.955 929.477 774.506 929.477L249.494 929.477C164.045 929.477 94.5231 859.955 94.5231 774.506L94.5231 249.478C94.5231 164.029 164.045 94.5073 249.494 94.5073L779.815 94.5073C784.163 94.5073 787.692 90.9785 787.692 86.6304C787.692 82.2823 784.163 78.7535 779.815 78.7535L249.494 78.7535C155.349 78.7535 78.7692 155.333 78.7692 249.478L78.7692 774.491C78.7692 868.636 155.349 945.215 249.494 945.215L774.506 945.215C868.651 945.215 945.231 868.636 945.231 774.491L945.231 480.492C945.231 476.128 941.702 472.615 937.354 472.615Z" fill="#635555" fill-rule="nonzero" opacity="1" stroke="none" vectornator:layerName="path 1"/>
<path d="M937.354 378.092C933.006 378.092 929.477 381.621 929.477 385.969L929.477 448.985C929.477 453.333 933.006 456.862 937.354 456.862C941.702 456.862 945.231 453.333 945.231 448.985L945.231 385.969C945.231 381.605 941.702 378.092 937.354 378.092ZM929.477 322.954L929.477 354.462C929.477 358.81 933.006 362.338 937.354 362.338C941.702 362.338 945.231 358.81 945.231 354.462L945.231 322.954C945.231 318.606 941.702 315.077 937.354 315.077C933.006 315.077 929.477 318.59 929.477 322.954ZM700.999 308.933C688.16 296.172 674.816 287.555 657.739 280.954C640.567 274.29 622.639 270.872 599.15 269.848C574.968 268.808 566.823 268.461 504.737 268.461C442.053 268.461 434.397 268.635 409.836 269.879C386.851 270.872 368.924 274.29 351.736 280.97C334.643 287.555 321.3 296.188 308.476 308.949C295.637 321.709 286.941 334.974 280.308 351.941C273.597 369.018 270.147 386.836 269.139 410.136C268.083 434.176 267.737 442.273 267.737 504.013C267.737 566.319 267.91 573.928 269.154 598.315C270.147 621.174 273.597 638.992 280.308 656.085C286.941 673.067 295.637 686.332 308.476 699.093C321.3 711.853 334.643 720.471 351.736 727.072C368.908 733.735 386.836 737.154 410.325 738.178C434.507 739.218 442.652 739.58 504.737 739.58C567.422 739.58 575.078 739.407 599.623 738.162C622.608 737.17 640.536 733.751 657.723 727.072C674.8 720.486 688.144 711.853 700.983 699.093C713.823 686.332 722.519 673.067 729.151 656.1C735.862 639.023 739.312 621.206 740.32 597.984C741.376 573.944 741.738 565.831 741.738 504.029C741.738 441.706 741.565 434.097 740.305 409.726C739.312 386.851 735.862 369.034 729.151 351.941C722.519 334.958 713.838 321.694 700.999 308.933ZM724.582 597.638C723.653 618.701 720.549 634.959 714.484 650.366C708.687 665.19 701.109 676.785 689.877 687.939C678.676 699.077 667.002 706.623 652.036 712.389C636.503 718.407 620.134 721.51 598.882 722.424C574.637 723.653 567.044 723.826 504.737 723.826C442.982 723.826 434.916 723.48 410.529 722.424C389.309 721.495 372.941 718.407 357.423 712.389C342.457 706.607 330.799 699.077 319.598 687.939C308.382 676.785 300.804 665.206 294.991 650.35C288.941 634.927 285.822 618.685 284.908 597.575C283.68 573.487 283.506 565.941 283.506 504.013C283.506 442.604 283.853 434.601 284.908 410.403C285.838 389.341 288.941 373.067 295.007 357.675C300.804 342.835 308.397 331.24 319.614 320.102C330.815 308.964 342.489 301.418 357.455 295.652C372.988 289.634 389.356 286.531 410.608 285.617C434.869 284.388 442.463 284.215 504.769 284.215C566.508 284.215 574.574 284.562 598.977 285.617C620.197 286.547 636.566 289.634 652.083 295.652C667.034 301.418 678.707 308.964 689.908 320.102C701.125 331.256 708.718 342.835 714.516 357.675L714.516 357.691C720.565 373.098 723.684 389.341 724.598 410.451C725.843 434.523 726.016 442.069 726.016 503.997C726 565.484 725.638 573.503 724.582 597.638Z" fill="#635555" fill-rule="nonzero" opacity="1" stroke="none" vectornator:layerName="path 2"/>
<path d="M504.564 379.132C435.295 379.132 378.927 435.153 378.927 504.013C378.927 572.873 435.295 628.894 504.564 628.894C573.834 628.894 630.185 572.873 630.185 504.013C630.185 435.168 573.834 379.132 504.564 379.132ZM504.564 613.14C443.975 613.14 394.681 564.192 394.681 504.013C394.681 443.849 443.975 394.886 504.564 394.886C565.153 394.886 614.432 443.833 614.432 504.013C614.432 564.192 565.153 613.14 504.564 613.14ZM631.241 339.354C611.769 339.354 595.921 355.123 595.921 374.5C595.921 393.878 611.769 409.647 631.241 409.647C650.713 409.647 666.561 393.878 666.561 374.5C666.577 355.123 650.728 339.354 631.241 339.354ZM631.241 393.893C620.449 393.893 611.675 385.197 611.675 374.5C611.675 363.804 620.449 355.107 631.241 355.107C642.032 355.107 650.807 363.804 650.807 374.5C650.823 385.197 642.048 393.893 631.241 393.893Z" fill="#635555" fill-rule="nonzero" opacity="1" stroke="none" vectornator:layerName="path 3"/>
</g>
</svg>
