<?xml version="1.0" encoding="UTF-8" standalone="no"?>
<!DOCTYPE svg PUBLIC "-//W3C//DTD SVG 1.1//EN" "http://www.w3.org/Graphics/SVG/1.1/DTD/svg11.dtd">
<!-- Created with Vectornator (http://vectornator.io/) -->
<svg height="100%" stroke-miterlimit="10" style="fill-rule:nonzero;clip-rule:evenodd;stroke-linecap:round;stroke-linejoin:round;" version="1.1" viewBox="0 0 1024 1024" width="100%" xml:space="preserve" xmlns="http://www.w3.org/2000/svg" xmlns:vectornator="http://vectornator.io" xmlns:xlink="http://www.w3.org/1999/xlink">
<defs/>
<clipPath id="ArtboardFrame">
<rect height="1024" width="1024" x="0" y="0"/>
</clipPath>
<g clip-path="url(#ArtboardFrame)" id="Layer-1" vectornator:layerName="Layer 1">
<path d="M819.2-2.84217e-14L204.8-2.84217e-14C91.8764-2.84217e-14 0 91.8764 0 204.8L0 819.2C0 932.124 91.8764 1024 204.8 1024L819.2 1024C932.124 1024 1024 932.124 1024 819.2L1024 204.8C1024 91.8607 932.139-2.84217e-14 819.2-2.84217e-14ZM992.492 819.2C992.492 914.747 914.747 992.492 819.2 992.492L204.8 992.492C109.253 992.492 31.5077 914.747 31.5077 819.2L31.5077 204.8C31.5077 109.253 109.253 31.5077 204.8 31.5077L819.2 31.5077C914.747 31.5077 992.492 109.253 992.492 204.8L992.492 819.2Z" fill="#635555" fill-rule="nonzero" opacity="1" stroke="none" vectornator:layerName="path"/>
<path d="M937.354 472.615C933.006 472.615 929.477 476.144 929.477 480.492L929.477 774.506C929.477 859.955 859.955 929.477 774.506 929.477L249.494 929.477C164.045 929.477 94.5231 859.955 94.5231 774.506L94.5231 249.478C94.5231 164.029 164.045 94.5073 249.494 94.5073L779.815 94.5073C784.163 94.5073 787.692 90.9785 787.692 86.6304C787.692 82.2823 784.163 78.7535 779.815 78.7535L249.494 78.7535C155.349 78.7535 78.7692 155.333 78.7692 249.478L78.7692 774.491C78.7692 868.636 155.349 945.215 249.494 945.215L774.506 945.215C868.651 945.215 945.231 868.636 945.231 774.491L945.231 480.492C945.231 476.128 941.702 472.615 937.354 472.615Z" fill="#635555" fill-rule="nonzero" opacity="1" stroke="none" vectornator:layerName="path 1"/>
<path d="M937.354 378.092C933.006 378.092 929.477 381.621 929.477 385.969L929.477 448.985C929.477 453.333 933.006 456.862 937.354 456.862C941.702 456.862 945.231 453.333 945.231 448.985L945.231 385.969C945.231 381.605 941.702 378.092 937.354 378.092ZM929.477 322.954L929.477 354.462C929.477 358.81 933.006 362.338 937.354 362.338C941.702 362.338 945.231 358.81 945.231 354.462L945.231 322.954C945.231 318.606 941.702 315.077 937.354 315.077C933.006 315.077 929.477 318.59 929.477 322.954ZM291.446 425.354C287.098 425.354 283.569 428.883 283.569 433.231L283.569 732.554C283.569 736.902 287.098 740.431 291.446 740.431L385.969 740.431C390.317 740.431 393.846 736.902 393.846 732.554L393.846 433.231C393.846 428.883 390.317 425.354 385.969 425.354L291.446 425.354ZM378.092 724.677L299.323 724.677L299.323 441.108L378.092 441.108L378.092 724.677ZM338.991 284.215C306.113 284.215 282.246 307.263 282.246 339.023C282.246 370.783 305.625 393.83 338.408 393.83C371.287 393.83 395.154 370.783 395.154 338.834C394.366 306.68 371.255 284.215 338.991 284.215ZM337.857 378.092C314.4 378.092 298 362.023 298 339.039C298 316.038 314.856 299.985 338.991 299.985C362.953 299.985 378.817 315.392 379.4 339.039C379.416 362.023 362.559 378.092 337.857 378.092ZM442.179 738.099C443.66 739.58 445.676 740.415 447.756 740.415L543.492 740.415C547.84 740.415 551.369 736.886 551.369 732.538L551.369 565.343C551.369 555.701 552.298 548.533 554.142 544.012C557.97 534.56 569.895 512.551 598 512.551C640.032 512.551 644.569 555.213 644.569 573.613L645.876 732.601C645.908 736.933 649.437 740.415 653.753 740.415L748.276 740.415C752.624 740.415 756.153 736.886 756.153 732.538L756.153 572.18C756.153 519.719 743.219 480.209 717.698 454.719C696.903 433.955 668.877 423.432 634.392 423.432C599.733 423.637 571.644 433.971 551.353 455.727L551.353 433.199C551.353 428.851 547.824 425.322 543.476 425.322L447.772 425.322C445.613 425.322 443.565 426.205 442.069 427.764C440.588 429.324 439.8 431.419 439.895 433.562C441.171 461.115 439.895 729.781 439.895 732.491C439.879 734.602 440.714 736.618 442.179 738.099ZM455.853 441.108L535.631 441.108L535.631 477.405C534.749 479.626 535.111 482.194 536.308 484.352C537.71 486.825 540.656 488.369 543.508 488.369C546.784 488.369 549.589 485.77 550.77 482.635C562.271 463.73 583.491 439.217 634.14 439.217C634.234 439.217 634.313 439.217 634.407 439.217C664.576 439.217 688.868 448.197 706.592 465.888C729.041 488.306 740.431 524.067 740.431 572.195L740.431 724.677L661.599 724.677L660.338 573.566C660.338 526.226 636.455 496.798 598.016 496.798C571.865 496.798 550.014 512.236 539.569 538.073C536.923 544.563 535.631 553.48 535.631 565.343L535.631 724.661L455.68 724.661C455.885 682.189 456.688 488.795 455.853 441.108Z" fill="#635555" fill-rule="nonzero" opacity="1" stroke="none" vectornator:layerName="path 2"/>
</g>
</svg>
